<svg xmlns="http://www.w3.org/2000/svg" viewBox="0 0 48 48" fill="none">
  <!-- CPU chip icon -->
  <rect x="12" y="12" width="24" height="24" rx="2" stroke="currentColor" stroke-width="2.5" fill="currentColor" opacity="0.2"/>
  <!-- Pins -->
  <path d="M8 16 L12 16" stroke="currentColor" stroke-width="2"/>
  <path d="M8 24 L12 24" stroke="currentColor" stroke-width="2"/>
  <path d="M8 32 L12 32" stroke="currentColor" stroke-width="2"/>
  <path d="M36 16 L40 16" stroke="currentColor" stroke-width="2"/>
  <path d="M36 24 L40 24" stroke="currentColor" stroke-width="2"/>
  <path d="M36 32 L40 32" stroke="currentColor" stroke-width="2"/>
  <path d="M16 8 L16 12" stroke="currentColor" stroke-width="2"/>
  <path d="M24 8 L24 12" stroke="currentColor" stroke-width="2"/>
  <path d="M32 8 L32 12" stroke="currentColor" stroke-width="2"/>
  <path d="M16 36 L16 40" stroke="currentColor" stroke-width="2"/>
  <path d="M24 36 L24 40" stroke="currentColor" stroke-width="2"/>
  <path d="M32 36 L32 40" stroke="currentColor" stroke-width="2"/>
  <!-- Z letter -->
  <path d="M18 20 L30 20 L18 28 L30 28" stroke="currentColor" stroke-width="2.5" stroke-linecap="round" stroke-linejoin="round"/>
</svg>
