<svg xmlns="http://www.w3.org/2000/svg" style="display:none">
  <symbol id="3dmark" viewBox="0 0 48 48">
    <!-- Trophy/medal for benchmark -->
  <path d="M18 8 L18 16 C18 22 20 26 24 26 C28 26 30 22 30 16 L30 8 Z" fill="currentColor" opacity="0.3" stroke="currentColor" stroke-width="2.5" stroke-linejoin="round"/>
  <path d="M14 8 L34 8" stroke="currentColor" stroke-width="2.5" stroke-linecap="round"/>
  <!-- Handles -->
  <path d="M18 10 Q12 10 12 16 Q12 20 16 20" stroke="currentColor" stroke-width="2" fill="none"/>
  <path d="M30 10 Q36 10 36 16 Q36 20 32 20" stroke="currentColor" stroke-width="2" fill="none"/>
  <!-- Base -->
  <rect x="20" y="26" width="8" height="8" fill="currentColor" opacity="0.4"/>
  <rect x="16" y="34" width="16" height="4" rx="2" fill="currentColor"/>
  <!-- 3D text -->
  <text x="24" y="19" font-family="Arial, sans-serif" font-size="10" font-weight="bold" fill="currentColor" text-anchor="middle">3D</text>
  </symbol>
  <symbol id="7zip" viewBox="0 0 48 48">
    <!-- Folder with zipper representing 7-Zip -->
  <path d="M6 12 L6 40 C6 41.1 6.9 42 8 42 L40 42 C41.1 42 42 41.1 42 40 L42 16 C42 14.9 41.1 14 40 14 L20 14 L16 10 L8 10 C6.9 10 6 10.9 6 12 Z" fill="currentColor" opacity="0.2" stroke="currentColor" stroke-width="2.5" stroke-linejoin="round"/>
  <!-- Number 7 -->
  <text x="24" y="32" font-family="Arial, sans-serif" font-size="18" font-weight="bold" fill="currentColor" text-anchor="middle">7z</text>
  </symbol>
  <symbol id="afterburner" viewBox="0 0 48 48">
    <!-- Gauge/speedometer representing overclocking -->
  <path d="M8 32 Q8 16 24 16 Q40 16 40 32" stroke="currentColor" stroke-width="2.5" fill="none" stroke-linecap="round"/>
  <circle cx="24" cy="32" r="3" fill="currentColor"/>
  <!-- Needle pointing up-right (overclocked) -->
  <path d="M24 32 L34 20" stroke="currentColor" stroke-width="2.5" stroke-linecap="round"/>
  <!-- Tick marks -->
  <path d="M10 32 L12 28" stroke="currentColor" stroke-width="2"/>
  <path d="M16 22 L18 20" stroke="currentColor" stroke-width="2"/>
  <path d="M24 16 L24 18" stroke="currentColor" stroke-width="2"/>
  <path d="M32 22 L30 20" stroke="currentColor" stroke-width="2"/>
  <path d="M38 32 L36 28" stroke="currentColor" stroke-width="2"/>
  <!-- Flame accent -->
  <path d="M24 6 Q28 2 26 8 Q24 6 26 12" fill="currentColor" opacity="0.5"/>
  </symbol>
  <symbol id="autohotkey" viewBox="0 0 48 48">
    <!-- Keyboard key with "H" representing hotkey -->
  <rect x="6" y="12" width="36" height="24" rx="4" stroke="currentColor" stroke-width="2.5" fill="currentColor" opacity="0.2"/>
  <!-- Key grid pattern -->
  <rect x="10" y="16" width="6" height="6" rx="1" stroke="currentColor" stroke-width="1.5" fill="none"/>
  <rect x="18" y="16" width="6" height="6" rx="1" stroke="currentColor" stroke-width="1.5" fill="none"/>
  <rect x="26" y="16" width="6" height="6" rx="1" stroke="currentColor" stroke-width="1.5" fill="none"/>
  <rect x="34" y="16" width="6" height="6" rx="1" stroke="currentColor" stroke-width="1.5" fill="none"/>
  <!-- AHK text -->
  <text x="24" y="32" font-family="monospace" font-size="10" font-weight="bold" fill="currentColor" text-anchor="middle">AHK</text>
  <!-- Lightning bolt for automation -->
  <path d="M38 6 L40 10 L38 14" stroke="currentColor" stroke-width="2" stroke-linecap="round" fill="none" opacity="0.7"/>
  </symbol>
  <symbol id="bulk-rename" viewBox="0 0 48 48">
    <!-- Multiple documents with pencil representing batch renaming -->
  <rect x="8" y="12" width="20" height="28" rx="2" stroke="currentColor" stroke-width="2.5" fill="none"/>
  <path d="M12 18 L24 18" stroke="currentColor" stroke-width="2" stroke-linecap="round"/>
  <path d="M12 24 L24 24" stroke="currentColor" stroke-width="2" stroke-linecap="round"/>
  <path d="M12 30 L20 30" stroke="currentColor" stroke-width="2" stroke-linecap="round"/>
  <!-- Pencil -->
  <path d="M32 6 L42 16 L30 28 L20 26 L22 16 Z" fill="currentColor" stroke="currentColor" stroke-width="2" stroke-linejoin="round"/>
  <path d="M38 10 L38 10" stroke="white" stroke-width="1.5"/>
  </symbol>
  <symbol id="cinebench" viewBox="0 0 48 48">
    <!-- CPU benchmark with cinema clapper -->
  <rect x="8" y="16" width="32" height="20" rx="2" stroke="currentColor" stroke-width="2.5" fill="currentColor" opacity="0.2"/>
  <!-- Clapper stripes -->
  <rect x="8" y="10" width="32" height="6" rx="2 2 0 0" fill="currentColor" opacity="0.4" stroke="currentColor" stroke-width="2.5"/>
  <path d="M12 10 L12 16" stroke="currentColor" stroke-width="2"/>
  <path d="M20 10 L20 16" stroke="currentColor" stroke-width="2"/>
  <path d="M28 10 L28 16" stroke="currentColor" stroke-width="2"/>
  <path d="M36 10 L36 16" stroke="currentColor" stroke-width="2"/>
  <!-- R23/R24 text hint -->
  <text x="24" y="28" font-family="monospace" font-size="10" font-weight="bold" fill="currentColor" text-anchor="middle">R24</text>
  <!-- CPU indicator -->
  <rect x="16" y="32" width="4" height="6" rx="1" fill="currentColor" opacity="0.5"/>
  <rect x="22" y="30" width="4" height="8" rx="1" fill="currentColor" opacity="0.7"/>
  <rect x="28" y="28" width="4" height="10" rx="1" fill="currentColor" opacity="0.9"/>
  </symbol>
  <symbol id="coretemp" viewBox="0 0 48 48">
    <!-- Thermometer -->
  <rect x="20" y="6" width="8" height="24" rx="4" stroke="currentColor" stroke-width="2.5" fill="none"/>
  <circle cx="24" cy="36" r="6" fill="currentColor" stroke="currentColor" stroke-width="2.5"/>
  <path d="M24 30 L24 12" stroke="currentColor" stroke-width="3" stroke-linecap="round"/>
  <!-- Temperature marks -->
  <path d="M28 12 L30 12" stroke="currentColor" stroke-width="2"/>
  <path d="M28 16 L30 16" stroke="currentColor" stroke-width="2"/>
  <path d="M28 20 L30 20" stroke="currentColor" stroke-width="2"/>
  <path d="M28 24 L30 24" stroke="currentColor" stroke-width="2"/>
  </symbol>
  <symbol id="cpuz" viewBox="0 0 48 48">
    <!-- CPU chip icon -->
  <rect x="12" y="12" width="24" height="24" rx="2" stroke="currentColor" stroke-width="2.5" fill="currentColor" opacity="0.2"/>
  <!-- Pins -->
  <path d="M8 16 L12 16" stroke="currentColor" stroke-width="2"/>
  <path d="M8 24 L12 24" stroke="currentColor" stroke-width="2"/>
  <path d="M8 32 L12 32" stroke="currentColor" stroke-width="2"/>
  <path d="M36 16 L40 16" stroke="currentColor" stroke-width="2"/>
  <path d="M36 24 L40 24" stroke="currentColor" stroke-width="2"/>
  <path d="M36 32 L40 32" stroke="currentColor" stroke-width="2"/>
  <path d="M16 8 L16 12" stroke="currentColor" stroke-width="2"/>
  <path d="M24 8 L24 12" stroke="currentColor" stroke-width="2"/>
  <path d="M32 8 L32 12" stroke="currentColor" stroke-width="2"/>
  <path d="M16 36 L16 40" stroke="currentColor" stroke-width="2"/>
  <path d="M24 36 L24 40" stroke="currentColor" stroke-width="2"/>
  <path d="M32 36 L32 40" stroke="currentColor" stroke-width="2"/>
  <!-- Z letter -->
  <path d="M18 20 L30 20 L18 28 L30 28" stroke="currentColor" stroke-width="2.5" stroke-linecap="round" stroke-linejoin="round"/>
  </symbol>
  <symbol id="crystaldiskinfo" viewBox="0 0 48 48">
    <!-- Crystal/diamond with disk -->
  <circle cx="24" cy="24" r="18" stroke="currentColor" stroke-width="2.5" fill="none"/>
  <path d="M24 6 L34 16 L24 26 L14 16 Z" fill="currentColor" opacity="0.3" stroke="currentColor" stroke-width="2" stroke-linejoin="round"/>
  <path d="M24 6 L24 26" stroke="currentColor" stroke-width="1.5"/>
  <path d="M14 16 L34 16" stroke="currentColor" stroke-width="1.5"/>
  <!-- Info dot -->
  <circle cx="24" cy="34" r="2" fill="currentColor"/>
  </symbol>
  <symbol id="crystaldiskmark" viewBox="0 0 48 48">
    <!-- Crystal with speed marks -->
  <circle cx="24" cy="24" r="18" stroke="currentColor" stroke-width="2.5" fill="none"/>
  <path d="M24 6 L34 16 L24 26 L14 16 Z" fill="currentColor" opacity="0.3" stroke="currentColor" stroke-width="2" stroke-linejoin="round"/>
  <!-- Speed/benchmark bars -->
  <rect x="10" y="32" width="8" height="4" rx="1" fill="currentColor" opacity="0.5"/>
  <rect x="20" y="28" width="8" height="8" rx="1" fill="currentColor" opacity="0.7"/>
  <rect x="30" y="24" width="8" height="12" rx="1" fill="currentColor"/>
  </symbol>
  <symbol id="ddu" viewBox="0 0 48 48">
    <!-- GPU card going into trash -->
  <rect x="6" y="18" width="24" height="16" rx="2" stroke="currentColor" stroke-width="2" fill="currentColor" opacity="0.3"/>
  <!-- Trash can -->
  <path d="M32 14 L42 14 L42 40 C42 41 41 42 40 42 L34 42 C33 42 32 41 32 40 Z" stroke="currentColor" stroke-width="2.5" fill="none"/>
  <path d="M30 14 L44 14" stroke="currentColor" stroke-width="2.5"/>
  <rect x="34" y="10" width="8" height="4" rx="1" fill="currentColor"/>
  <!-- X on card -->
  <path d="M14 22 L22 30 M22 22 L14 30" stroke="currentColor" stroke-width="2.5" stroke-linecap="round"/>
  </symbol>
  <symbol id="directx" viewBox="0 0 48 48">
    <!-- DirectX logo inspired design -->
  <path d="M4 24 L24 4 L44 24 L24 44 Z" fill="currentColor" opacity="0.2" stroke="currentColor" stroke-width="2.5" stroke-linejoin="round"/>
  <path d="M14 24 L24 14 L34 24 L24 34 Z" fill="currentColor" opacity="0.4"/>
  <!-- X -->
  <path d="M18 18 L30 30 M30 18 L18 30" stroke="currentColor" stroke-width="3" stroke-linecap="round"/>
  </symbol>
  <symbol id="ditto" viewBox="0 0 48 48">
    <!-- Overlapping clipboards representing clipboard manager -->
  <rect x="8" y="12" width="24" height="30" rx="2" stroke="currentColor" stroke-width="2.5" fill="currentColor" opacity="0.2"/>
  <rect x="8" y="8" width="6" height="6" rx="1" fill="currentColor"/>
  <rect x="16" y="8" width="24" height="30" rx="2" stroke="currentColor" stroke-width="2.5" fill="none"/>
  <rect x="24" y="4" width="6" height="6" rx="1" fill="currentColor"/>
  <path d="M22 18 L34 18" stroke="currentColor" stroke-width="2" stroke-linecap="round"/>
  <path d="M22 24 L34 24" stroke="currentColor" stroke-width="2" stroke-linecap="round"/>
  <path d="M22 30 L30 30" stroke="currentColor" stroke-width="2" stroke-linecap="round"/>
  </symbol>
  <symbol id="eartrumpet" viewBox="0 0 48 48">
    <!-- Speaker/trumpet with volume waves -->
  <path d="M12 18 L12 30 L20 30 L32 40 L32 8 L20 18 Z" fill="currentColor" stroke="currentColor" stroke-width="2.5" stroke-linejoin="round"/>
  <!-- Sound waves -->
  <path d="M38 16 Q42 20 42 24 Q42 28 38 32" stroke="currentColor" stroke-width="2.5" stroke-linecap="round" fill="none"/>
  <path d="M36 20 Q38 22 38 24 Q38 26 36 28" stroke="currentColor" stroke-width="2.5" stroke-linecap="round" fill="none"/>
  </symbol>
  <symbol id="everything" viewBox="0 0 48 48">
    <!-- Magnifying glass with lightning for instant search -->
  <circle cx="20" cy="20" r="12" stroke="currentColor" stroke-width="2.5" fill="none"/>
  <path d="M29 29 L42 42" stroke="currentColor" stroke-width="2.5" stroke-linecap="round"/>
  <!-- Lightning inside -->
  <path d="M20 12 L18 20 L22 20 L20 28" stroke="currentColor" stroke-width="2" stroke-linecap="round" stroke-linejoin="round"/>
  </symbol>
  <symbol id="flameshot" viewBox="0 0 48 48">
    <!-- Camera with flame representing Flameshot -->
  <rect x="8" y="14" width="32" height="24" rx="4" stroke="currentColor" stroke-width="2.5" fill="none"/>
  <circle cx="24" cy="26" r="7" stroke="currentColor" stroke-width="2.5" fill="none"/>
  <circle cx="24" cy="26" r="3" fill="currentColor"/>
  <rect x="18" y="10" width="12" height="4" rx="2" fill="currentColor"/>
  <circle cx="36" cy="20" r="2" fill="currentColor"/>
  <!-- Flame accent -->
  <path d="M38 10 Q40 6 38 2 Q36 4 38 8 Z" fill="currentColor" opacity="0.6"/>
  </symbol>
  <symbol id="flux" viewBox="0 0 48 48">
    <!-- Sun/moon icon representing f.lux's day/night cycle -->
  <circle cx="24" cy="24" r="12" fill="currentColor" opacity="0.3"/>
  <circle cx="24" cy="24" r="8" fill="currentColor"/>
  <!-- Sun rays -->
  <path d="M24 6 L24 2" stroke="currentColor" stroke-width="2.5" stroke-linecap="round"/>
  <path d="M24 46 L24 42" stroke="currentColor" stroke-width="2.5" stroke-linecap="round"/>
  <path d="M42 24 L46 24" stroke="currentColor" stroke-width="2.5" stroke-linecap="round"/>
  <path d="M2 24 L6 24" stroke="currentColor" stroke-width="2.5" stroke-linecap="round"/>
  <path d="M37.5 10.5 L40.5 7.5" stroke="currentColor" stroke-width="2.5" stroke-linecap="round"/>
  <path d="M7.5 40.5 L10.5 37.5" stroke="currentColor" stroke-width="2.5" stroke-linecap="round"/>
  <path d="M37.5 37.5 L40.5 40.5" stroke="currentColor" stroke-width="2.5" stroke-linecap="round"/>
  <path d="M7.5 7.5 L10.5 10.5" stroke="currentColor" stroke-width="2.5" stroke-linecap="round"/>
  </symbol>
  <symbol id="foobar2000" viewBox="0 0 48 48">
    <!-- Stylized "fb2k" or audio bars -->
  <rect x="6" y="28" width="6" height="14" rx="1" fill="currentColor" opacity="0.5"/>
  <rect x="14" y="20" width="6" height="22" rx="1" fill="currentColor" opacity="0.6"/>
  <rect x="22" y="12" width="6" height="30" rx="1" fill="currentColor" opacity="0.8"/>
  <rect x="30" y="18" width="6" height="24" rx="1" fill="currentColor" opacity="0.7"/>
  <rect x="38" y="24" width="6" height="18" rx="1" fill="currentColor" opacity="0.6"/>
  <!-- "2k" text hint -->
  <text x="24" y="10" font-family="monospace" font-size="8" font-weight="bold" fill="currentColor" text-anchor="middle" opacity="0.8">fb2k</text>
  </symbol>
  <symbol id="fpsmonitor" viewBox="0 0 48 48">
    <!-- Monitor with FPS counter -->
  <rect x="6" y="10" width="36" height="24" rx="2" stroke="currentColor" stroke-width="2.5" fill="none"/>
  <rect x="16" y="34" width="16" height="2" fill="currentColor"/>
  <path d="M24 34 L24 38" stroke="currentColor" stroke-width="2"/>
  <!-- FPS text -->
  <text x="24" y="26" font-family="monospace" font-size="12" font-weight="bold" fill="currentColor" text-anchor="middle">144</text>
  <!-- Graph line -->
  <path d="M10 28 L14 22 L18 24 L22 18 L26 20 L30 16 L34 18 L38 20" stroke="currentColor" stroke-width="2" fill="none" opacity="0.5"/>
  </symbol>
  <symbol id="furmark" viewBox="0 0 48 48">
    <!-- Furry donut (FurMark's iconic logo) -->
  <circle cx="24" cy="24" r="16" fill="currentColor" opacity="0.3" stroke="currentColor" stroke-width="2.5"/>
  <circle cx="24" cy="24" r="8" fill="none" stroke="currentColor" stroke-width="2.5"/>
  <!-- Fur/flame texture -->
  <path d="M24 8 L26 12 L24 16" stroke="currentColor" stroke-width="1.5" opacity="0.6"/>
  <path d="M36 16 L38 18 L36 22" stroke="currentColor" stroke-width="1.5" opacity="0.6"/>
  <path d="M40 24 L42 26 L40 28" stroke="currentColor" stroke-width="1.5" opacity="0.6"/>
  <path d="M36 32 L38 34 L36 36" stroke="currentColor" stroke-width="1.5" opacity="0.6"/>
  <path d="M24 40 L26 38 L24 36" stroke="currentColor" stroke-width="1.5" opacity="0.6"/>
  <path d="M12 32 L10 34 L12 36" stroke="currentColor" stroke-width="1.5" opacity="0.6"/>
  <path d="M8 24 L6 26 L8 28" stroke="currentColor" stroke-width="1.5" opacity="0.6"/>
  <path d="M12 16 L10 18 L12 20" stroke="currentColor" stroke-width="1.5" opacity="0.6"/>
  <!-- Heat indicator -->
  <circle cx="24" cy="24" r="3" fill="#ff4444" opacity="0.8"/>
  </symbol>
  <symbol id="geekbench" viewBox="0 0 48 48">
    <!-- Laboratory beaker/flask for benchmarking -->
  <path d="M16 6 L16 20 L10 36 C8 40 10 42 14 42 L34 42 C38 42 40 40 38 36 L32 20 L32 6 Z" fill="currentColor" opacity="0.2" stroke="currentColor" stroke-width="2.5" stroke-linejoin="round"/>
  <path d="M14 6 L34 6" stroke="currentColor" stroke-width="2.5" stroke-linecap="round"/>
  <!-- Measurement marks -->
  <path d="M12 30 L20 30" stroke="currentColor" stroke-width="1.5"/>
  <path d="M14 34 L22 34" stroke="currentColor" stroke-width="1.5"/>
  <!-- Bubbles -->
  <circle cx="20" cy="32" r="2" fill="currentColor" opacity="0.5"/>
  <circle cx="26" cy="28" r="2.5" fill="currentColor" opacity="0.5"/>
  <circle cx="28" cy="35" r="1.5" fill="currentColor" opacity="0.5"/>
  </symbol>
  <symbol id="gpuz" viewBox="0 0 48 48">
    <!-- GPU card icon -->
  <rect x="6" y="14" width="36" height="24" rx="2" stroke="currentColor" stroke-width="2.5" fill="currentColor" opacity="0.2"/>
  <!-- Fan -->
  <circle cx="16" cy="26" r="6" stroke="currentColor" stroke-width="2" fill="none"/>
  <path d="M16 20 L16 32 M10 26 L22 26" stroke="currentColor" stroke-width="1.5"/>
  <!-- Heatsink fins -->
  <path d="M28 18 L28 34" stroke="currentColor" stroke-width="2"/>
  <path d="M32 18 L32 34" stroke="currentColor" stroke-width="2"/>
  <path d="M36 18 L36 34" stroke="currentColor" stroke-width="2"/>
  <!-- PCIe connector -->
  <rect x="38" y="8" width="4" height="8" fill="currentColor"/>
  <!-- Z letter -->
  <path d="M28 24 L36 24 L28 30 L36 30" stroke="currentColor" stroke-width="2" stroke-linecap="round" stroke-linejoin="round"/>
  </symbol>
  <symbol id="hwinfo" viewBox="0 0 48 48">
    <!-- Computer chip with info symbol -->
  <rect x="8" y="8" width="32" height="32" rx="4" stroke="currentColor" stroke-width="2.5" fill="none"/>
  <rect x="16" y="16" width="16" height="16" rx="2" fill="currentColor" opacity="0.3"/>
  <!-- Chip pins -->
  <path d="M4 14 L8 14" stroke="currentColor" stroke-width="2"/>
  <path d="M4 20 L8 20" stroke="currentColor" stroke-width="2"/>
  <path d="M4 26 L8 26" stroke="currentColor" stroke-width="2"/>
  <path d="M4 34 L8 34" stroke="currentColor" stroke-width="2"/>
  <path d="M40 14 L44 14" stroke="currentColor" stroke-width="2"/>
  <path d="M40 20 L44 20" stroke="currentColor" stroke-width="2"/>
  <path d="M40 26 L44 26" stroke="currentColor" stroke-width="2"/>
  <path d="M40 34 L44 34" stroke="currentColor" stroke-width="2"/>
  <!-- Info 'i' -->
  <circle cx="24" cy="21" r="1.5" fill="currentColor"/>
  <path d="M24 25 L24 31" stroke="currentColor" stroke-width="2.5" stroke-linecap="round"/>
  </symbol>
  <symbol id="imageglass" viewBox="0 0 48 48">
    <!-- Photo/image icon with mountain and sun -->
  <rect x="4" y="8" width="40" height="32" rx="2" stroke="currentColor" stroke-width="2.5" fill="none"/>
  <circle cx="15" cy="18" r="4" fill="currentColor"/>
  <path d="M4 32 L14 22 L22 30 L30 20 L44 32" fill="currentColor" opacity="0.3"/>
  <path d="M4 32 L14 22 L22 30 L30 20 L44 32" stroke="currentColor" stroke-width="2.5" stroke-linejoin="round" fill="none"/>
  </symbol>
  <symbol id="java" viewBox="0 0 48 48">
    <!-- Coffee cup - iconic Java logo -->
  <path d="M10 18 L10 32 C10 36 14 40 18 40 L30 40 C34 40 38 36 38 32 L38 18 Z" fill="currentColor" opacity="0.3" stroke="currentColor" stroke-width="2.5" stroke-linejoin="round"/>
  <path d="M8 18 L40 18" stroke="currentColor" stroke-width="2.5" stroke-linecap="round"/>
  <!-- Handle -->
  <path d="M38 22 Q44 24 44 28 Q44 32 38 34" stroke="currentColor" stroke-width="2.5" fill="none" stroke-linecap="round"/>
  <!-- Steam -->
  <path d="M16 12 Q14 8 16 6" stroke="currentColor" stroke-width="2" fill="none" stroke-linecap="round"/>
  <path d="M24 14 Q22 10 24 6" stroke="currentColor" stroke-width="2" fill="none" stroke-linecap="round"/>
  <path d="M32 12 Q30 8 32 6" stroke="currentColor" stroke-width="2" fill="none" stroke-linecap="round"/>
  </symbol>
  <symbol id="medal" viewBox="0 0 48 48">
    <!-- Medal with play button -->
  <circle cx="24" cy="28" r="12" fill="currentColor" stroke="currentColor" stroke-width="2.5"/>
  <circle cx="24" cy="28" r="8" fill="none" stroke="white" stroke-width="2"/>
  <!-- Ribbon -->
  <path d="M18 20 L12 6 L18 8 L24 4 L30 8 L36 6 L30 20" fill="currentColor" opacity="0.6" stroke="currentColor" stroke-width="2" stroke-linejoin="round"/>
  <!-- Play symbol -->
  <path d="M22 26 L22 30 L28 28 Z" fill="white"/>
  </symbol>
  <symbol id="moonlight" viewBox="0 0 48 48">
    <!-- Crescent moon representing Moonlight game streaming -->
  <path d="M24 4 C15 4 8 11 8 20 C8 29 15 36 24 36 C22 36 20 34.5 20 28 C20 21.5 22 4 24 4 Z" fill="currentColor"/>
  <circle cx="24" cy="20" r="16" stroke="currentColor" stroke-width="2.5" fill="none"/>
  <path d="M32 12 C28 16 28 24 32 28" stroke="currentColor" stroke-width="2.5" stroke-linecap="round" fill="none" opacity="0.5"/>
  </symbol>
  <symbol id="mpchc" viewBox="0 0 48 48">
    <!-- Classic media player icon -->
  <circle cx="24" cy="24" r="18" fill="currentColor" stroke="currentColor" stroke-width="2.5"/>
  <circle cx="24" cy="24" r="14" fill="none" stroke="currentColor" stroke-width="1" opacity="0.3"/>
  <!-- Play button -->
  <path d="M20 16 L20 32 L34 24 Z" fill="white"/>
  </symbol>
  <symbol id="musicbee" viewBox="0 0 48 48">
    <!-- Bee with music notes -->
  <ellipse cx="24" cy="26" rx="10" ry="12" fill="currentColor"/>
  <circle cx="24" cy="20" r="8" fill="currentColor"/>
  <!-- Stripes -->
  <path d="M16 24 Q24 22 32 24" stroke="black" stroke-width="2.5" opacity="0.3"/>
  <path d="M16 28 Q24 26 32 28" stroke="black" stroke-width="2.5" opacity="0.3"/>
  <!-- Wings -->
  <ellipse cx="14" cy="20" rx="6" ry="10" fill="currentColor" opacity="0.4" transform="rotate(-30 14 20)"/>
  <ellipse cx="34" cy="20" rx="6" ry="10" fill="currentColor" opacity="0.4" transform="rotate(30 34 20)"/>
  <!-- Music note -->
  <circle cx="36" cy="10" r="2.5" fill="currentColor"/>
  <path d="M36 10 L36 2 L40 2" stroke="currentColor" stroke-width="2"/>
  </symbol>
  <symbol id="notepadplusplus" viewBox="0 0 48 48">
    <!-- Notepad with chameleon-inspired colors -->
  <rect x="8" y="6" width="32" height="38" rx="2" stroke="currentColor" stroke-width="2.5" fill="currentColor" opacity="0.1"/>
  <!-- Paper lines -->
  <path d="M14 14 L34 14" stroke="currentColor" stroke-width="2" opacity="0.3"/>
  <path d="M14 20 L34 20" stroke="currentColor" stroke-width="2" opacity="0.3"/>
  <path d="M14 26 L28 26" stroke="currentColor" stroke-width="2" opacity="0.3"/>
  <!-- Chameleon tail curl (signature element) -->
  <path d="M30 32 Q34 28 38 32 Q40 36 36 38" stroke="currentColor" stroke-width="2.5" fill="none" stroke-linecap="round" opacity="0.8"/>
  <!-- Plus plus symbols -->
  <g transform="translate(36, 12)">
    <path d="M-2 0 L2 0 M0 -2 L0 2" stroke="currentColor" stroke-width="2" stroke-linecap="round"/>
  </g>
  <g transform="translate(42, 16)">
    <path d="M-2 0 L2 0 M0 -2 L0 2" stroke="currentColor" stroke-width="2" stroke-linecap="round"/>
  </g>
  </symbol>
  <symbol id="nvcleanstall" viewBox="0 0 48 48">
    <!-- NVIDIA eye-like logo with sparkle -->
  <path d="M8 24 Q12 12 24 12 Q36 12 40 24 Q36 36 24 36 Q12 36 8 24 Z" fill="currentColor" opacity="0.2" stroke="currentColor" stroke-width="2.5"/>
  <circle cx="24" cy="24" r="6" fill="currentColor"/>
  <!-- Sparkle/clean indicator -->
  <path d="M38 10 L40 14 L44 12 L42 16 L46 18 L42 20 L44 24 L40 22 L38 26 L36 22 L32 24 L34 20 L30 18 L34 16 L32 12 L36 14 Z" fill="currentColor" opacity="0.6"/>
  </symbol>
  <symbol id="openhardwaremonitor" viewBox="0 0 48 48">
    <!-- Open chip icon -->
  <rect x="8" y="8" width="32" height="32" rx="4" stroke="currentColor" stroke-width="2.5" fill="none"/>
  <rect x="16" y="16" width="16" height="16" rx="2" stroke="currentColor" stroke-width="2" fill="currentColor" opacity="0.2"/>
  <!-- Open padlock -->
  <path d="M28 20 C28 18 26 16 24 16 C22 16 20 18 20 20" stroke="currentColor" stroke-width="2" fill="none" stroke-linecap="round"/>
  <rect x="20" y="22" width="8" height="6" rx="1" fill="currentColor" opacity="0.6"/>
  </symbol>
  <symbol id="openrgb" viewBox="0 0 48 48">
    <!-- RGB color wheel -->
  <circle cx="24" cy="24" r="16" stroke="currentColor" stroke-width="2.5" fill="none"/>
  <!-- RGB segments -->
  <path d="M24 8 A16 16 0 0 1 37.9 18" stroke="#ff4444" stroke-width="4" fill="none" opacity="0.7"/>
  <path d="M37.9 18 A16 16 0 0 1 37.9 30" stroke="#44ff44" stroke-width="4" fill="none" opacity="0.7"/>
  <path d="M37.9 30 A16 16 0 0 1 24 40" stroke="#4444ff" stroke-width="4" fill="none" opacity="0.7"/>
  <path d="M24 40 A16 16 0 0 1 10.1 30" stroke="#ffff44" stroke-width="4" fill="none" opacity="0.7"/>
  <path d="M10.1 30 A16 16 0 0 1 10.1 18" stroke="#ff44ff" stroke-width="4" fill="none" opacity="0.7"/>
  <path d="M10.1 18 A16 16 0 0 1 24 8" stroke="#44ffff" stroke-width="4" fill="none" opacity="0.7"/>
  <!-- Center circle -->
  <circle cx="24" cy="24" r="6" fill="currentColor"/>
  </symbol>
  <symbol id="peazip" viewBox="0 0 48 48">
    <!-- Zipper icon representing compression -->
  <path d="M20 4 L20 44" stroke="currentColor" stroke-width="2.5" stroke-linecap="round"/>
  <path d="M28 4 L28 44" stroke="currentColor" stroke-width="2.5" stroke-linecap="round"/>
  <!-- Zipper teeth -->
  <rect x="18" y="6" width="4" height="3" fill="currentColor"/>
  <rect x="26" y="6" width="4" height="3" fill="currentColor"/>
  <rect x="18" y="12" width="4" height="3" fill="currentColor"/>
  <rect x="26" y="12" width="4" height="3" fill="currentColor"/>
  <rect x="18" y="18" width="4" height="3" fill="currentColor"/>
  <rect x="26" y="18" width="4" height="3" fill="currentColor"/>
  <!-- Zipper pull -->
  <circle cx="24" cy="30" r="6" fill="currentColor"/>
  <path d="M24 36 L24 42" stroke="currentColor" stroke-width="3" stroke-linecap="round"/>
  </symbol>
  <symbol id="playnite" viewBox="0 0 48 48">
    <!-- Library/bookshelf icon representing game library -->
  <rect x="4" y="28" width="40" height="16" rx="2" stroke="currentColor" stroke-width="2.5" fill="currentColor" opacity="0.1"/>
  <!-- Books/games -->
  <rect x="6" y="12" width="8" height="16" rx="1" fill="currentColor" opacity="0.5" stroke="currentColor" stroke-width="2"/>
  <rect x="16" y="8" width="8" height="20" rx="1" fill="currentColor" opacity="0.6" stroke="currentColor" stroke-width="2"/>
  <rect x="26" y="14" width="8" height="14" rx="1" fill="currentColor" opacity="0.5" stroke="currentColor" stroke-width="2"/>
  <rect x="36" y="10" width="8" height="18" rx="1" fill="currentColor" opacity="0.6" stroke="currentColor" stroke-width="2"/>
  <!-- Play button on one book -->
  <path d="M19 14 L19 22 L25 18 Z" fill="white" opacity="0.9"/>
  </symbol>
  <symbol id="powertoys" viewBox="0 0 48 48">
    <!-- Wrench + lightning representing PowerToys -->
  <path d="M18 8 L30 8 L28 18 L32 18 L20 40 L22 26 L18 26 Z" fill="currentColor" stroke="currentColor" stroke-width="2" stroke-linejoin="round"/>
  <circle cx="10" cy="14" r="6" stroke="currentColor" stroke-width="2.5" fill="none"/>
  <path d="M14 18 L20 24" stroke="currentColor" stroke-width="2.5" stroke-linecap="round"/>
  </symbol>
  <symbol id="prism" viewBox="0 0 48 48">
    <!-- Prism dispersing light -->
  <path d="M8 34 L24 8 L40 34 Z" fill="currentColor" opacity="0.2" stroke="currentColor" stroke-width="2.5" stroke-linejoin="round"/>
  <!-- Light rays -->
  <path d="M24 8 L24 2" stroke="#ff4444" stroke-width="2" opacity="0.7"/>
  <path d="M40 34 L44 36" stroke="#ff4444" stroke-width="2" opacity="0.7"/>
  <path d="M40 34 L44 34" stroke="#44ff44" stroke-width="2" opacity="0.7"/>
  <path d="M40 34 L44 32" stroke="#4444ff" stroke-width="2" opacity="0.7"/>
  </symbol>
  <symbol id="revo" viewBox="0 0 48 48">
    <!-- Hunter/target icon representing thorough uninstall -->
  <circle cx="24" cy="24" r="18" stroke="currentColor" stroke-width="2.5" fill="none"/>
  <circle cx="24" cy="24" r="12" stroke="currentColor" stroke-width="2.5" fill="none"/>
  <circle cx="24" cy="24" r="4" fill="currentColor"/>
  <path d="M24 6 L24 2" stroke="currentColor" stroke-width="2.5" stroke-linecap="round"/>
  <path d="M24 46 L24 42" stroke="currentColor" stroke-width="2.5" stroke-linecap="round"/>
  <path d="M42 24 L46 24" stroke="currentColor" stroke-width="2.5" stroke-linecap="round"/>
  <path d="M2 24 L6 24" stroke="currentColor" stroke-width="2.5" stroke-linecap="round"/>
  </symbol>
  <symbol id="signalrgb" viewBox="0 0 48 48">
    <!-- Signal waves with RGB colors -->
  <path d="M24 24 L24 40" stroke="currentColor" stroke-width="2.5" stroke-linecap="round"/>
  <!-- RGB signal arcs -->
  <path d="M16 20 Q12 24 16 28" stroke="#ff4444" stroke-width="3" fill="none" stroke-linecap="round" opacity="0.8"/>
  <path d="M10 16 Q4 24 10 32" stroke="#44ff44" stroke-width="3" fill="none" stroke-linecap="round" opacity="0.8"/>
  <path d="M6 12 Q-2 24 6 36" stroke="#4444ff" stroke-width="3" fill="none" stroke-linecap="round" opacity="0.8"/>
  <path d="M32 20 Q36 24 32 28" stroke="#ff4444" stroke-width="3" fill="none" stroke-linecap="round" opacity="0.8"/>
  <path d="M38 16 Q44 24 38 32" stroke="#44ff44" stroke-width="3" fill="none" stroke-linecap="round" opacity="0.8"/>
  <path d="M42 12 Q50 24 42 36" stroke="#4444ff" stroke-width="3" fill="none" stroke-linecap="round" opacity="0.8"/>
  <circle cx="24" cy="24" r="4" fill="currentColor"/>
  </symbol>
  <symbol id="vcredist" viewBox="0 0 48 48">
    <!-- Microsoft Windows logo style with C++ -->
  <rect x="4" y="4" width="40" height="40" rx="2" stroke="currentColor" stroke-width="2.5" fill="currentColor" opacity="0.1"/>
  <!-- Windows grid -->
  <path d="M24 4 L24 44 M4 24 L44 24" stroke="currentColor" stroke-width="2.5" opacity="0.3"/>
  <!-- C++ text -->
  <g transform="translate(24, 24)">
    <text x="0" y="0" font-family="monospace" font-size="16" font-weight="bold" fill="currentColor" text-anchor="middle" dominant-baseline="middle">C++</text>
  </g>
  <!-- Microsoft accent -->
  <rect x="6" y="6" width="8" height="8" fill="currentColor" opacity="0.6"/>
  </symbol>
  <symbol id="voicemeeter" viewBox="0 0 48 48">
    <!-- Audio mixer with faders -->
  <rect x="4" y="4" width="40" height="40" rx="4" stroke="currentColor" stroke-width="2.5" fill="none"/>
  <!-- Fader 1 -->
  <path d="M12 36 L12 12" stroke="currentColor" stroke-width="2"/>
  <rect x="9" y="18" width="6" height="10" rx="1" fill="currentColor"/>
  <!-- Fader 2 -->
  <path d="M24 36 L24 12" stroke="currentColor" stroke-width="2"/>
  <rect x="21" y="24" width="6" height="10" rx="1" fill="currentColor"/>
  <!-- Fader 3 -->
  <path d="M36 36 L36 12" stroke="currentColor" stroke-width="2"/>
  <rect x="33" y="14" width="6" height="10" rx="1" fill="currentColor"/>
  </symbol>
  <symbol id="webview2" viewBox="0 0 48 48">
    <!-- Browser window with Microsoft Edge wave -->
  <rect x="6" y="10" width="36" height="28" rx="3" stroke="currentColor" stroke-width="2.5" fill="none"/>
  <path d="M6 18 L42 18" stroke="currentColor" stroke-width="2.5"/>
  <circle cx="12" cy="14" r="1.5" fill="currentColor"/>
  <circle cx="17" cy="14" r="1.5" fill="currentColor"/>
  <circle cx="22" cy="14" r="1.5" fill="currentColor"/>
  <!-- Wave/surf icon -->
  <path d="M14 26 Q18 22 24 26 Q30 30 36 26" stroke="currentColor" stroke-width="2.5" fill="none" stroke-linecap="round"/>
  <path d="M14 32 Q20 28 24 32" stroke="currentColor" stroke-width="2" fill="none" stroke-linecap="round" opacity="0.5"/>
  </symbol>
  <symbol id="windirstat" viewBox="0 0 48 48">
    <!-- Treemap/grid representing WinDirStat's visualization -->
  <rect x="4" y="4" width="40" height="40" stroke="currentColor" stroke-width="2.5" fill="none" rx="2"/>
  <rect x="4" y="4" width="24" height="18" fill="currentColor" opacity="0.3"/>
  <rect x="30" y="4" width="14" height="18" fill="currentColor" opacity="0.5"/>
  <rect x="4" y="24" width="16" height="20" fill="currentColor" opacity="0.4"/>
  <rect x="22" y="24" width="22" height="10" fill="currentColor" opacity="0.6"/>
  <rect x="22" y="36" width="22" height="8" fill="currentColor" opacity="0.35"/>
  <path d="M4 22 L44 22" stroke="currentColor" stroke-width="2.5"/>
  <path d="M28 4 L28 22" stroke="currentColor" stroke-width="2.5"/>
  <path d="M20 24 L20 44" stroke="currentColor" stroke-width="2.5"/>
  <path d="M22 34 L44 34" stroke="currentColor" stroke-width="2.5"/>
  </symbol>
  <symbol id="winrar" viewBox="0 0 48 48">
    <!-- Stacked books/files representing archive compression -->
  <path d="M8 14 L8 42 L32 42 L32 14 Z" fill="currentColor" opacity="0.3" stroke="currentColor" stroke-width="2.5" stroke-linejoin="round"/>
  <path d="M12 10 L12 38 L36 38 L36 10 Z" fill="currentColor" opacity="0.5" stroke="currentColor" stroke-width="2.5" stroke-linejoin="round"/>
  <path d="M16 6 L16 34 L40 34 L40 6 Z" fill="none" stroke="currentColor" stroke-width="2.5" stroke-linejoin="round"/>
  <!-- RAR text suggestion -->
  <text x="24" y="22" font-family="monospace" font-size="10" font-weight="bold" fill="currentColor" text-anchor="middle">RAR</text>
  </symbol>
  <symbol id="wiztree" viewBox="0 0 48 48">
    <!-- Tree icon representing WizTree's folder tree visualization -->
  <path d="M24 4 L24 44" stroke="currentColor" stroke-width="2.5" stroke-linecap="round"/>
  <path d="M24 12 L34 12" stroke="currentColor" stroke-width="2.5" stroke-linecap="round"/>
  <path d="M24 20 L38 20" stroke="currentColor" stroke-width="2.5" stroke-linecap="round"/>
  <path d="M24 28 L32 28" stroke="currentColor" stroke-width="2.5" stroke-linecap="round"/>
  <path d="M24 36 L36 36" stroke="currentColor" stroke-width="2.5" stroke-linecap="round"/>
  <circle cx="34" cy="12" r="2.5" fill="currentColor"/>
  <circle cx="38" cy="20" r="2.5" fill="currentColor"/>
  <circle cx="32" cy="28" r="2.5" fill="currentColor"/>
  <circle cx="36" cy="36" r="2.5" fill="currentColor"/>
  <path d="M14 12 L24 12" stroke="currentColor" stroke-width="2.5" stroke-linecap="round"/>
  <path d="M10 20 L24 20" stroke="currentColor" stroke-width="2.5" stroke-linecap="round"/>
  <circle cx="14" cy="12" r="2.5" fill="currentColor"/>
  <circle cx="10" cy="20" r="2.5" fill="currentColor"/>
  </symbol>
  <symbol id="wootility" viewBox="0 0 48 48">
    <!-- Analog keyboard key with W -->
  <rect x="8" y="12" width="32" height="24" rx="4" stroke="currentColor" stroke-width="2.5" fill="currentColor" opacity="0.2"/>
  <!-- Analog indicator -->
  <path d="M12 32 L16 20 L20 32 L24 16 L28 32 L32 20 L36 32" stroke="currentColor" stroke-width="2" fill="none" opacity="0.5"/>
  <!-- W key -->
  <text x="24" y="22" font-family="Arial, sans-serif" font-size="14" font-weight="bold" fill="currentColor" text-anchor="middle">W</text>
  </symbol>
</svg>
